 <svg 
                            width="650px"
                            height="20px"
                            xmlns="http://www.w3.org/2000/svg" viewBox="0 0 480 72" fill="none">
                                <path d="M22.496 10.7246L22.4078 9.97977L22.496 10.7246ZM127.276 10.7493L127.187 11.4941L127.276 10.7493ZM208.93 20.4582L209.019 19.7134L208.93 20.4582ZM305.392 21.3887L305.466 22.1351L305.392 21.3887ZM390.96 12.8851L390.885 12.1388L390.96 12.8851ZM22.5038 9.105L22.7502 9.81337L22.5038 9.105ZM34.5041 9.78503L34.9681 10.3743V10.3743L34.5041 9.78503ZM37.1752 7.68148L37.6393 8.27071L37.1752 7.68148ZM57.5846 7.55449L56.9607 7.13838V7.13838L57.5846 7.55449ZM59.5036 4.67688L60.1276 5.09298V5.09298L59.5036 4.67688ZM74.1765 6.55704L74.8852 6.31181L74.8852 6.31171L74.1765 6.55704ZM69.4401 1.59142L69.1616 2.28778V2.28778L69.4401 1.59142ZM46.6341 8.42511L47.1845 7.91563L46.6341 8.42511ZM27.6884 9.89148L28.1338 9.28805V9.28805L27.6884 9.89148ZM169.888 15.9806L169.245 16.3675L169.245 16.3675L169.888 15.9806ZM170.209 16.5149L170.852 16.128V16.128L170.209 16.5149ZM188.114 18.4273L188.814 18.1587L188.814 18.1586L188.114 18.4273ZM188.278 18.8552L187.578 19.1239L187.578 19.1239L188.278 18.8552ZM198.794 18.5859L198.081 18.3534V18.3534L198.794 18.5859ZM199.069 17.7449L199.782 17.9774V17.9774L199.069 17.7449ZM207.84 14.6005L208.243 13.9679L208.243 13.9679L207.84 14.6005ZM207.948 14.6695L207.545 15.3021V15.3021L207.948 14.6695ZM210.658 18.8497L211.4 18.7401V18.7401L210.658 18.8497ZM144.042 11.8351L143.786 11.1303V11.1303L144.042 11.8351ZM151.585 13.8149L152.154 13.3268L152.154 13.3268L151.585 13.8149ZM151.942 14.2311L151.372 14.7192V14.7192L151.942 14.2311ZM160.773 14.9547L161.255 15.5289V15.5289L160.773 14.9547ZM161.262 14.5437L160.779 13.9695V13.9695L161.262 14.5437ZM178.957 17.0518L178.366 16.5892V16.5892L178.957 17.0518ZM291.416 23.6869L291.708 22.9963L291.706 22.9952L291.416 23.6869ZM295.981 25.6205L296.274 24.9299L295.981 25.6205ZM307.267 21.9448L307.91 22.3307L307.267 21.9448ZM308.569 19.775L307.925 19.3891L308.569 19.775ZM334.93 17.8606L335.649 18.075V18.075L334.93 17.8606ZM335.594 15.6357L334.876 15.4213V15.4213L335.594 15.6357ZM346.864 15.2711L347.567 15.0106V15.0106L346.864 15.2711ZM287.337 21.9763L287.047 22.6679L287.337 21.9763ZM344.945 12.648L344.484 13.2394V13.2394L344.945 12.648ZM321.372 19.6749L320.735 20.0708L321.372 19.6749ZM110.084 9.32341L110.615 9.85373L110.084 9.32341ZM112.99 6.41791L112.459 5.88758L112.99 6.41791ZM127.172 11.878L127.725 12.3844L127.172 11.878ZM131.149 7.53255L130.596 7.02618L131.149 7.53255ZM141.337 9.70097L140.625 9.93814L141.337 9.70097ZM98.0294 6.74181C97.7223 6.46391 97.248 6.48762 96.9701 6.79478C96.6922 7.10193 96.7159 7.57621 97.0231 7.85412L98.0294 6.74181ZM98.7726 8.42559L98.2694 8.98174V8.98174L98.7726 8.42559ZM102.596 10.5993L102.375 11.3161V11.3161L102.596 10.5993ZM102.958 10.7107L103.179 9.99391L102.958 10.7107ZM139.766 7.23143L139.25 7.77518V7.77518L139.766 7.23143ZM120.018 9.21373L119.268 9.23485L120.018 9.21373ZM244.845 25.6225L245.358 26.1699L244.845 25.6225ZM248.436 22.2581L247.923 21.7108L248.436 22.2581ZM268.932 24.1894L269.599 24.5311V24.5311L268.932 24.1894ZM269.81 22.4729L269.143 22.1312V22.1312L269.81 22.4729ZM278.311 22.4327L277.647 22.7807V22.7807L278.311 22.4327ZM216.977 21.0819L217.522 20.5673L216.977 21.0819ZM217.793 21.9476L217.248 22.4622L217.793 21.9476ZM225.185 22.7774L224.767 22.1545V22.1545L225.185 22.7774ZM226.521 21.8807L226.939 22.5036V22.5036L226.521 21.8807ZM235.297 24.0589L235.957 23.7037L235.297 24.0589ZM276.928 20.8126L276.48 21.4144V21.4144L276.928 20.8126ZM258.057 24.0559L258.733 23.7307L258.057 24.0559ZM377.011 14.4985L376.535 13.9187V13.9187L377.011 14.4985ZM381.017 11.2117L381.493 11.7915V11.7915L381.017 11.2117ZM404.414 11.2419L405.07 11.6048L405.071 11.6048L404.414 11.2419ZM405.347 9.55457L404.691 9.1917V9.1917L405.347 9.55457ZM415.971 10.451L416.679 10.2032V10.2032L415.971 10.451ZM347.406 17.0792C347.055 17.2993 346.949 17.7622 347.169 18.1131C347.389 18.464 347.852 18.5701 348.203 18.35L347.406 17.0792ZM349.579 16.6021L349.977 17.2375V17.2375L349.579 16.6021ZM362.829 15.8615L362.503 16.5373V16.5373L362.829 15.8615ZM363.39 16.1318L363.716 15.456V15.456L363.39 16.1318ZM413.607 7.46106L413.203 8.09277V8.09277L413.607 7.46106ZM391.797 12.3296L392.382 11.8598L391.797 12.3296ZM75.7976 5.53348L75.3815 4.90944L75.7976 5.53348ZM87.1232 7.75666L87.6003 8.33531L87.1232 7.75666ZM88.6359 6.50934L88.1588 5.93069V5.93069L88.6359 6.50934ZM94.8736 5.91437L95.2327 5.25594L94.8736 5.91437ZM81.3014 6.76311L80.6594 7.15076L81.3014 6.76311ZM426.69 9.8583L426.238 10.4568L426.69 9.8583ZM429.159 11.7232L429.611 11.1247L429.159 11.7232ZM440.229 12.9321L440.541 13.614L440.229 12.9321ZM449.69 8.60041L449.378 7.91848V7.91848L449.69 8.60041ZM480.052 11.3716L479.472 10.8963V10.8963L480.052 11.3716ZM462.872 11.5272L462.301 12.0129L462.872 11.5272ZM1.0882 14.015L22.5842 11.4694L22.4078 9.97977L0.911799 12.5254L1.0882 14.015ZM127.187 11.4941L208.842 21.203L209.019 19.7134L127.365 10.0045L127.187 11.4941ZM305.466 22.1351L391.034 13.6314L390.885 12.1388L305.318 20.6424L305.466 22.1351ZM391.034 13.6314C420.929 10.6605 451.051 10.7893 480.919 14.0159L481.081 12.5245C451.109 9.28688 420.883 9.15761 390.885 12.1388L391.034 13.6314ZM208.842 21.203C240.921 25.0172 273.319 25.3298 305.466 22.1351L305.318 20.6424C273.279 23.8264 240.99 23.5149 209.019 19.7134L208.842 21.203ZM22.5842 11.4694C57.3311 7.35452 92.4426 7.36281 127.187 11.4941L127.365 10.0045C92.5023 5.85934 57.2721 5.85102 22.4078 9.97977L22.5842 11.4694ZM73.6377 6.74236V68.9648H75.1377V6.74236H73.6377ZM210.305 20.909V71.187H211.805V20.909H210.305ZM347.249 17.298V67.5759H348.749V17.298H347.249ZM15.9665 12.173L22.7502 9.81337L22.2574 8.39663L15.4737 10.7562L15.9665 12.173ZM34.9681 10.3743L37.6393 8.27071L36.7112 7.09226L34.0401 9.1958L34.9681 10.3743ZM58.2086 7.97059L60.1276 5.09298L58.8796 4.26077L56.9607 7.13838L58.2086 7.97059ZM73.4677 6.80228L73.4838 6.84871L74.9013 6.35824L74.8852 6.31181L73.4677 6.80228ZM69.1616 2.28778C71.1839 3.09671 72.7552 4.74409 73.4677 6.80238L74.8852 6.31171C74.0303 3.84216 72.1451 1.86563 69.7187 0.895063L69.1616 2.28778ZM60.1276 5.09298C62.097 2.1397 65.8658 0.969445 69.1616 2.28778L69.7187 0.895063C65.7643 -0.686681 61.2426 0.7174 58.8796 4.26077L60.1276 5.09298ZM46.0837 8.93459C49.486 12.6101 55.4299 12.1375 58.2086 7.97059L56.9607 7.13838C54.7202 10.4981 49.9277 10.8792 47.1845 7.91563L46.0837 8.93459ZM37.6393 8.27071C40.1967 6.2567 43.8724 6.54568 46.0837 8.93459L47.1845 7.91563C44.4419 4.95278 39.8831 4.59438 36.7112 7.09226L37.6393 8.27071ZM27.243 10.4949C29.5515 12.1987 32.714 12.1493 34.9681 10.3743L34.0401 9.1958C32.3167 10.553 29.8987 10.5907 28.1338 9.28805L27.243 10.4949ZM22.7502 9.81337C24.2685 9.28523 25.9496 9.54025 27.243 10.4949L28.1338 9.28805C26.4421 8.03941 24.2433 7.70586 22.2574 8.39663L22.7502 9.81337ZM169.245 16.3675L169.567 16.9018L170.852 16.128L170.53 15.5938L169.245 16.3675ZM187.413 18.696L187.578 19.1239L188.978 18.5865L188.814 18.1587L187.413 18.696ZM199.507 18.8184L199.782 17.9774L198.356 17.5124L198.081 18.3534L199.507 18.8184ZM207.437 15.233L207.545 15.3021L208.351 14.0369L208.243 13.9679L207.437 15.233ZM209.916 18.9593L210.074 20.0306L211.558 19.8114L211.4 18.7401L209.916 18.9593ZM142.644 13.1417L144.299 12.54L143.786 11.1303L142.131 11.732L142.644 13.1417ZM151.015 14.303L151.372 14.7192L152.511 13.743L152.154 13.3268L151.015 14.303ZM161.255 15.5289L161.744 15.118L160.779 13.9695L160.29 14.3804L161.255 15.5289ZM151.372 14.7192C153.887 17.6533 158.296 18.0146 161.255 15.5289L160.29 14.3804C157.961 16.3369 154.491 16.0526 152.511 13.743L151.372 14.7192ZM144.299 12.54C146.686 11.6717 149.362 12.3741 151.015 14.303L152.154 13.3268C150.094 10.9236 146.761 10.0486 143.786 11.1303L144.299 12.54ZM207.545 15.3021C208.829 16.1195 209.694 17.454 209.916 18.9593L211.4 18.7401C211.114 16.8044 210.001 15.0882 208.351 14.0369L207.545 15.3021ZM199.782 17.9774C200.824 14.7812 204.601 13.427 207.437 15.2331L208.243 13.9679C204.58 11.6353 199.702 13.3843 198.356 17.5124L199.782 17.9774ZM187.578 19.1239C189.714 24.6909 197.659 24.4875 199.507 18.8184L198.081 18.3534C196.671 22.6793 190.608 22.8346 188.978 18.5865L187.578 19.1239ZM179.547 17.5144C181.738 14.7184 186.141 15.3798 187.413 18.696L188.814 18.1586C187.124 13.7542 181.276 12.8758 178.366 16.5892L179.547 17.5144ZM169.567 16.9018C171.761 20.5453 176.924 20.8622 179.547 17.5144L178.366 16.5892C176.391 19.1099 172.504 18.8713 170.852 16.128L169.567 16.9018ZM170.53 15.5938C168.469 12.1714 163.838 11.4 160.779 13.9695L161.744 15.118C164.097 13.1414 167.66 13.7348 169.245 16.3675L170.53 15.5938ZM291.123 24.3775L295.689 26.3111L296.274 24.9299L291.708 22.9963L291.123 24.3775ZM307.91 22.3307L309.212 20.1608L307.925 19.3891L306.624 21.5589L307.91 22.3307ZM335.649 18.075L336.313 15.8502L334.876 15.4213L334.212 17.6461L335.649 18.075ZM346.161 15.5316L346.963 17.6973L348.369 17.1764L347.567 15.0106L346.161 15.5316ZM287.047 22.6679L291.126 24.3785L291.706 22.9952L287.627 21.2846L287.047 22.6679ZM280.022 24.1956C281.809 22.2596 284.617 21.649 287.047 22.6679L287.627 21.2846C284.615 20.0217 281.135 20.7785 278.92 23.1782L280.022 24.1956ZM344.484 13.2394C345.245 13.8328 345.825 14.6266 346.161 15.5316L347.567 15.0106C347.135 13.8442 346.387 12.8213 345.406 12.0565L344.484 13.2394ZM336.313 15.8502C337.359 12.3468 341.6 10.9914 344.484 13.2394L345.406 12.0565C341.69 9.15927 336.223 10.9061 334.876 15.4213L336.313 15.8502ZM320.735 20.0708C324.489 26.1112 333.615 24.89 335.649 18.075L334.212 17.6461C332.548 23.2221 325.08 24.2213 322.009 19.279L320.735 20.0708ZM309.212 20.1608C311.81 15.8304 318.069 15.7814 320.735 20.0708L322.009 19.279C318.751 14.0366 311.101 14.0965 307.925 19.3891L309.212 20.1608ZM295.689 26.3111C300.185 28.2155 305.397 26.5178 307.91 22.3307L306.624 21.5589C304.496 25.1049 300.082 26.5426 296.274 24.9299L295.689 26.3111ZM141.694 12.5757V44.5203H143.194V12.5757H141.694ZM278.639 23.9647V55.9092H280.139V23.9647H278.639ZM415.861 11.1869V43.1314H417.361V11.1869H415.861ZM110.615 9.85373L113.52 6.94824L112.459 5.88758L109.554 8.79308L110.615 9.85373ZM127.725 12.3844L131.702 8.03892L130.596 7.02618L126.618 11.3716L127.725 12.3844ZM140.625 9.93814L141.676 13.0907L143.099 12.6164L142.048 9.4638L140.625 9.93814ZM97.0231 7.85412L98.2694 8.98174L99.2758 7.86944L98.0294 6.74181L97.0231 7.85412ZM102.375 11.3161L102.737 11.4276L103.179 9.99391L102.816 9.88247L102.375 11.3161ZM105.201 11.798H105.921V10.298H105.201V11.798ZM102.737 11.4276C103.536 11.6731 104.366 11.798 105.201 11.798V10.298C104.515 10.298 103.834 10.1955 103.179 9.99391L102.737 11.4276ZM98.2694 8.98174C99.4509 10.0507 100.852 10.8476 102.375 11.3161L102.816 9.88247C101.503 9.47841 100.295 8.79125 99.2758 7.86943L98.2694 8.98174ZM139.25 7.77518C139.879 8.37255 140.351 9.11533 140.625 9.93814L142.048 9.4638C141.696 8.40774 141.09 7.45439 140.283 6.68769L139.25 7.77518ZM131.702 8.03892C133.701 5.8548 137.103 5.73592 139.25 7.77518L140.283 6.68769C137.528 4.07033 133.161 4.22291 130.596 7.02618L131.702 8.03892ZM119.268 9.23485C119.391 13.6077 124.771 15.6114 127.725 12.3844L126.618 11.3716C124.575 13.6043 120.853 12.218 120.767 9.19262L119.268 9.23485ZM113.52 6.94824C115.609 4.85879 119.185 6.28109 119.268 9.23485L120.767 9.19262C120.647 4.92329 115.479 2.86751 112.459 5.88758L113.52 6.94824ZM109.554 8.79307C108.59 9.75665 107.283 10.298 105.921 10.298V11.798C107.681 11.798 109.37 11.0986 110.615 9.85373L109.554 8.79307ZM245.358 26.1699L248.949 22.8054L247.923 21.7108L244.332 25.0752L245.358 26.1699ZM269.599 24.5311L270.478 22.8146L269.143 22.1312L268.264 23.8477L269.599 24.5311ZM277.647 22.7807L278.668 24.7293L279.997 24.0333L278.976 22.0847L277.647 22.7807ZM216.431 21.5966L217.248 22.4622L218.339 21.4329L217.522 20.5673L216.431 21.5966ZM225.602 23.4002L226.939 22.5036L226.103 21.2579L224.767 22.1545L225.602 23.4002ZM226.939 22.5036C229.565 20.7416 233.139 21.6285 234.636 24.414L235.957 23.7037C234.04 20.1376 229.466 19.0022 226.103 21.2579L226.939 22.5036ZM217.248 22.4622C219.429 24.7746 222.963 25.1712 225.602 23.4002L224.767 22.1545C222.736 23.5172 220.017 23.212 218.339 21.4329L217.248 22.4622ZM211.461 21.222C212.966 20.0443 215.12 20.2066 216.431 21.5966L217.522 20.5673C215.679 18.6137 212.652 18.3854 210.536 20.0407L211.461 21.222ZM276.48 21.4144C276.967 21.7764 277.366 22.2434 277.647 22.7807L278.976 22.0847C278.59 21.3477 278.043 20.7072 277.375 20.2108L276.48 21.4144ZM270.478 22.8146C271.615 20.5924 274.477 19.9249 276.48 21.4144L277.375 20.2108C274.627 18.1676 270.703 19.0832 269.143 22.1312L270.478 22.8146ZM257.381 24.3811C259.826 29.4622 267.03 29.5506 269.599 24.5311L268.264 23.8477C266.26 27.7634 260.64 27.6944 258.733 23.7307L257.381 24.3811ZM248.949 22.8054C251.571 20.3488 255.823 21.1435 257.381 24.3811L258.733 23.7307C256.736 19.5803 251.284 18.5617 247.923 21.7108L248.949 22.8054ZM244.332 25.0752C241.767 27.4784 237.622 26.7995 235.957 23.7037L234.636 24.414C236.767 28.3773 242.074 29.2464 245.358 26.1699L244.332 25.0752ZM377.487 15.0783L381.493 11.7915L380.541 10.6319L376.535 13.9187L377.487 15.0783ZM405.071 11.6048L406.003 9.91744L404.691 9.1917L403.758 10.8791L405.071 11.6048ZM415.263 10.6987L415.569 11.5735L416.985 11.078L416.679 10.2032L415.263 10.6987ZM348.203 18.35L349.977 17.2375L349.18 15.9667L347.406 17.0792L348.203 18.35ZM362.503 16.5373L363.065 16.8076L363.716 15.456L363.154 15.1856L362.503 16.5373ZM349.977 17.2375C353.755 14.8683 358.485 14.6039 362.503 16.5373L363.154 15.1856C358.671 13.0288 353.395 13.3237 349.18 15.9667L349.977 17.2375ZM413.203 8.09277C414.162 8.70653 414.887 9.62408 415.263 10.6987L416.679 10.2032C416.192 8.81189 415.253 7.62398 414.011 6.82936L413.203 8.09277ZM406.003 9.91745C407.426 7.34436 410.726 6.50788 413.203 8.09277L414.011 6.82936C410.805 4.77747 406.532 5.86042 404.691 9.1917L406.003 9.91745ZM391.213 12.7995C394.943 17.4409 402.189 16.8162 405.07 11.6048L403.758 10.8791C401.393 15.1571 395.444 15.6699 392.382 11.8598L391.213 12.7995ZM381.493 11.7915C384.449 9.36569 388.817 9.81862 391.213 12.7995L392.382 11.8598C389.463 8.22859 384.143 7.67684 380.541 10.6319L381.493 11.7915ZM376.535 13.9187C372.925 16.8811 367.924 17.4808 363.716 15.456L363.065 16.8076C367.8 19.0855 373.425 18.4109 377.487 15.0783L376.535 13.9187ZM74.1918 7.50535L76.2136 6.15752L75.3815 4.90944L73.3598 6.25728L74.1918 7.50535ZM87.6003 8.33531L89.113 7.08799L88.1588 5.93069L86.6461 7.178L87.6003 8.33531ZM94.5145 6.57279L97.3056 8.09525L98.0239 6.77841L95.2327 5.25594L94.5145 6.57279ZM89.113 7.08799C90.6394 5.82942 92.7777 5.62546 94.5145 6.57279L95.2327 5.25594C92.9582 4.01528 90.1578 4.2824 88.1588 5.93069L89.113 7.08799ZM80.6594 7.15076C82.1267 9.58105 85.41 10.1414 87.6003 8.33531L86.6461 7.178C85.1621 8.40164 82.9376 8.02201 81.9435 6.37545L80.6594 7.15076ZM76.2136 6.15752C77.7078 5.16137 79.7312 5.6134 80.6594 7.15076L81.9435 6.37545C80.5734 4.10633 77.587 3.43913 75.3815 4.90944L76.2136 6.15752ZM426.238 10.4568L428.707 12.3217L429.611 11.1247L427.142 9.25983L426.238 10.4568ZM440.541 13.614L450.002 9.28234L449.378 7.91848L439.917 12.2502L440.541 13.614ZM480.632 11.8469L481.58 10.69L480.42 9.73932L479.472 10.8963L480.632 11.8469ZM462.301 12.0129C467.125 17.6884 475.912 17.6088 480.632 11.8469L479.472 10.8963C475.344 15.9343 467.662 16.0038 463.444 11.0414L462.301 12.0129ZM450.002 9.28234C454.251 7.33718 459.275 8.45256 462.301 12.0129L463.444 11.0414C459.983 6.96947 454.237 5.6938 449.378 7.91848L450.002 9.28234ZM428.707 12.3217C432.114 14.8952 436.659 15.3915 440.541 13.614L439.917 12.2502C436.536 13.798 432.578 13.3658 429.611 11.1247L428.707 12.3217ZM417.247 11.277C419.585 8.72696 423.478 8.37181 426.238 10.4568L427.142 9.25983C423.765 6.70881 419.001 7.14335 416.141 10.2634L417.247 11.277Z" fill="black"/>
                              </svg>