<svg xmlns="http://www.w3.org/2000/svg" viewBox="0 0 404.3 132.2"><path fill="#fff" d="M391.4.1H0v97.2A35 35 0 0 0 39.4 132l338.7-43.2a30 30 0 0 0 25.4-36.6L391.4.2Z"/><path d="M176.4 59.3v-.8h6.2v.7h-6.2Zm2.7 6.8v-7.4h.8v7.4h-.8Zm6.3 0v-7.6h.8v7.6h-.8Zm.5-3.6v-.7h4.7v.7h-4.7Zm4.5 3.6v-7.6h.8v7.6h-.8Zm4.3 0v-7.6h.8v7.6h-.8Zm.6-6.8v-.8h4.4v.7h-4.4Zm0 3.3v-.8h4v.8h-4Zm0 3.5v-.8h4.4v.8h-4.4Zm15-7.3 2.1-.2c1.4 0 2.4.3 3 1 .7.5 1 1.4 1 2.6s-.3 2.2-1 2.9c-.7.7-1.9 1-3.3 1h-1.7v-7.3Zm1 6.5h1c2 0 3.2-1 3.2-3 0-1.8-1-3-3-3a5 5 0 0 0-1.2.2v5.8Zm8.9-6.6V66h-1v-7.4h1Zm8.8 7a7 7 0 0 1-2.3.5c-1 0-2-.3-2.7-1-.7-.6-1-1.6-1-2.8 0-2.2 1.5-3.8 4-3.8.8 0 1.5.2 1.8.3l-.2.8c-.4-.2-1-.3-1.7-.3-1.8 0-3 1.1-3 3s1.2 3 3 3l1.2-.2v-2.3h-1.5v-.7h2.4v3.5Zm4-7V66h-1v-7.4h1Zm4.6.8h-2.3v-.8h5.5v.8h-2.2V66h-1v-6.6Zm6 4.2-.8 2.4h-1l2.6-7.5h1.1l2.5 7.5h-1l-.8-2.4h-2.6Zm2.4-.7-.7-2.1-.4-1.4-.4 1.3-.7 2.2h2.2Zm4.5-4.3h1v6.6h3.2v.8h-4.2v-7.5Zm20.7 4.1-.1-3.2-1 2.8-1.3 3.6h-.7l-1.2-3.5-.9-2.9-.1 3.3-.2 3.2h-1l.6-7.4h1.2l1.3 3.6.7 2.5.8-2.5 1.3-3.6h1.3l.4 7.4h-1l-.1-3.3Zm5.3 1-.8 2.3h-1l2.6-7.5h1.1l2.6 7.5h-1l-.8-2.4h-2.7Zm2.4-.8-.7-2.1-.4-1.4-.4 1.3-.7 2.2h2.2Zm4.6-4.2a10 10 0 0 1 1.8-.2c1 0 1.7.2 2.1.6.4.3.6.8.6 1.4a2 2 0 0 1-1.4 2c.6.1 1 .7 1.1 1.4.2 1 .4 1.8.6 2h-1l-.5-1.7c-.2-1-.6-1.4-1.5-1.4h-.9V66h-1v-7.3Zm1 3.3h.9c1 0 1.7-.5 1.7-1.4 0-1-.7-1.4-1.7-1.4l-1 .1v2.7Zm6.4-3.4h1v3.5l.6-.8 2.3-2.7h1.1l-2.6 3.1 2.9 4.3H295l-2.4-3.7-.7.9V66h-1v-7.4Zm11.4 3.9h-2.9v2.7h3.3v.8h-4.2v-7.5h4v.8h-3v2.4h2.8v.8Zm4.7-3.1h-2.3v-.8h5.5v.8H308V66h-1v-6.6Zm9.4 3.1h-2.9v2.7h3.3v.8h-4.2v-7.5h4v.8h-3v2.4h2.8v.8Zm3-3.8a10 10 0 0 1 1.8-.2c1 0 1.7.2 2.2.6.3.3.5.8.5 1.4a2 2 0 0 1-1.4 2c.6.1 1 .7 1.1 1.4.3 1 .4 1.8.6 2h-1l-.5-1.7c-.2-1-.6-1.4-1.5-1.4h-.9V66h-1v-7.3Zm1 3.3h1c1 0 1.6-.5 1.6-1.4 0-1-.7-1.4-1.7-1.4l-1 .1v2.7Zm6.3 2.8c.5.3 1 .5 1.7.5 1 0 1.6-.5 1.6-1.3 0-.7-.4-1-1.4-1.4-1.2-.5-2-1.1-2-2.1 0-1.2 1-2 2.4-2 .8 0 1.4.1 1.7.3l-.3.8a3 3 0 0 0-1.4-.4c-1 0-1.4.6-1.4 1.1 0 .7.5 1 1.5 1.5 1.2.5 1.9 1 1.9 2.2s-.9 2-2.6 2c-.7 0-1.5-.1-2-.4l.3-.8Zm-32.3-11.1a10.3 10.3 0 0 1-9.2-5.4c-1-1.6-1.4-3.5-1.4-5.5a10.5 10.5 0 0 1 10.6-10.7 9.8 9.8 0 0 1 7.6 3.1l-1 1a8.8 8.8 0 0 0-6.6-2.8 9 9 0 0 0-8 4.6c-.8 1.4-1.2 3-1.2 4.8s.4 3.5 1.2 4.9a9.1 9.1 0 0 0 11.8 4 8.7 8.7 0 0 0 3-2.2l1 1a11 11 0 0 1-7.7 3.2Zm9.8-.5V22h1.4v31.3h-1.4Zm5.8 0V32.6h1.4v20.7H310Zm5.7 0V32.6h1.4v20.7h-1.4Zm16 0V41c0-2.3-.6-4.1-1.9-5.5s-3-2-5.2-2c-1.4 0-2.7.3-3.9 1a7.1 7.1 0 0 0-3.6 6.4l-1-.5a8.2 8.2 0 0 1 4.3-7.1c1.3-.8 2.8-1.1 4.5-1.1s3 .4 4.3 1.1c1.2.8 2.2 1.8 2.9 3.1.7 1.3 1 2.8 1 4.5v12.4h-1.4Zm14.6 0a10 10 0 0 1-9.1-5.1c-1-1.6-1.4-3.4-1.4-5.4s.5-3.8 1.4-5.4a10 10 0 0 1 9-5.2c1.6 0 3 .3 4.3.9a8.8 8.8 0 0 1 5.2 6.3v6.7a9.8 9.8 0 0 1-5.1 6.3 10 10 0 0 1-4.3 1Zm-.7 9.3c-2 0-3.8-.4-5.4-1.1-1.6-.8-2.9-1.8-3.9-3.2l.9-.9c.8 1.2 2 2.1 3.4 2.8 1.4.7 3.1 1.1 5 1.1 3 0 5.2-.8 7-2.4a8.3 8.3 0 0 0 2.5-6.3v-5.3l.4-4.8-.4-4.8v-5h1.4v19.9c0 2-.5 3.8-1.4 5.3a9.3 9.3 0 0 1-3.8 3.5c-1.6.8-3.5 1.2-5.7 1.2Zm.9-10.6c1.7 0 3.2-.3 4.5-1.1 1.3-.8 2.3-1.9 3-3.3s1.1-3 1.1-4.8-.4-3.5-1-4.8a8.3 8.3 0 0 0-7.7-4.5c-1.8 0-3.4.4-4.7 1.2s-2.5 1.9-3.3 3.2c-.8 1.4-1.2 3-1.2 4.8s.4 3.4 1.2 4.8a8.6 8.6 0 0 0 3.3 3.3c1.4.8 3 1.2 4.8 1.2ZM104 53.8V33h6.5v21h-6.5Zm13.3 0V41.6a3.2 3.2 0 0 0-3.3-3.3c-.7 0-1.3.1-1.8.4-.5.3-1 .6-1.2 1.1-.3.5-.5 1.1-.5 1.8l-2.5-1c0-1.7.3-3.2 1-4.4s1.8-2 3-2.7a8.8 8.8 0 0 1 8 0c1.2.7 2.2 1.6 2.9 2.8.6 1.1 1 2.5 1 4.2v13.3h-6.6Zm13.4 0V41.6a3.2 3.2 0 0 0-3.4-3.3c-.6 0-1.2.1-1.7.4-.5.3-1 .6-1.3 1.1-.3.5-.4 1.1-.4 1.8l-3.8-.5c0-1.8.5-3.3 1.3-4.6a8.3 8.3 0 0 1 3.1-3c1.3-.6 2.8-1 4.4-1s3 .4 4.3 1 2.3 1.7 3 3 1 2.7 1 4.4v13h-6.5Zm20.1.5c-2.2 0-4-.5-5.8-1.4a10.6 10.6 0 0 1-5.6-9.5c0-2.1.4-4 1.5-5.6 1-1.6 2.3-3 4-3.9s3.7-1.4 5.9-1.4 4.1.4 5.8 1.4a10.7 10.7 0 0 1 4.1 15c-1 1.7-2.3 3-4 4s-3.7 1.4-6 1.4Zm0-6c1 0 1.8-.2 2.5-.6.7-.4 1.3-1 1.6-1.8s.6-1.6.6-2.5-.2-1.9-.6-2.6a4.4 4.4 0 0 0-4.1-2.3 4.4 4.4 0 0 0-4.1 2.4c-.4.7-.6 1.5-.6 2.5s.2 1.8.6 2.6c.4.7 1 1.3 1.6 1.7.8.4 1.6.6 2.5.6Zm13.8 14.4V32.9h6.6v5.4l-1 5.1 1 5v14.3h-6.6Zm12-8.4a9 9 0 0 1-3.8-.8 7.5 7.5 0 0 1-2.9-2.3c-.7-1-1.1-2-1.3-3.3v-8.8c.2-1.2.6-2.4 1.3-3.4s1.7-1.7 3-2.3 2.4-.9 3.8-.9a9.8 9.8 0 0 1 8.9 5.3c.8 1.6 1.3 3.5 1.3 5.6s-.5 4-1.3 5.6c-1 1.6-2.1 3-3.6 3.9s-3.3 1.4-5.3 1.4Zm-1.1-6c1 0 1.8-.2 2.5-.6s1.2-1 1.6-1.8c.4-.7.6-1.6.6-2.5s-.2-1.8-.6-2.6c-.4-.7-1-1.3-1.6-1.7-.7-.4-1.6-.6-2.5-.6s-1.7.2-2.4.6c-.7.4-1.3 1-1.7 1.7-.4.8-.6 1.6-.6 2.6s.2 1.8.6 2.5 1 1.4 1.7 1.8c.7.4 1.5.6 2.4.6Zm18.3 5.5L186.7 33h6.4l4.5 15.2h-1.9l5-15.2h5.3l5 15.3h-2l4.5-15.3h6.5l-7.2 21h-5.4l-4.9-14.5h1.7l-5 14.4H194Zm27.5 0V33h6.6v21h-6.6Zm13.8 0V42c0-1-.3-2-1-2.6s-1.5-1-2.5-1c-.8 0-1.4.1-2 .4s-.9.8-1.2 1.3c-.3.6-.5 1.2-.5 2l-2.5-1.3c0-1.7.3-3 1-4.3s1.8-2.2 3-2.9c1.3-.7 2.8-1 4.4-1s2.9.4 4 1.1 2.2 1.7 2.9 3 1 2.4 1 3.9v13.3h-6.6Zm18.9.5c-2 0-3.6-.5-5.2-1.5-1.5-.9-2.6-2.2-3.5-3.8-.9-1.7-1.3-3.5-1.3-5.6s.4-4 1.3-5.6 2-3 3.5-3.9c1.6-1 3.3-1.4 5.2-1.4 1.4 0 2.7.3 3.8.8 1.1.6 2 1.3 2.8 2.3a6 6 0 0 1 1.2 3.3v9c-.1 1.2-.5 2.3-1.2 3.3s-1.6 1.7-2.8 2.3c-1.1.5-2.4.8-3.8.8Zm1.3-6c1.4 0 2.6-.4 3.4-1.4a5 5 0 0 0 1.3-3.5c0-1-.2-1.8-.6-2.6-.4-.7-.9-1.3-1.6-1.7-.7-.5-1.5-.7-2.4-.7s-1.8.3-2.5.7c-.7.4-1.2 1-1.6 1.7-.5.8-.7 1.6-.7 2.6s.2 1.8.6 2.5a4.6 4.6 0 0 0 4 2.4h.1Zm4.4 5.5v-5.6l1-5-1-5.1v-5.2h6.5v21h-6.5Z"/><path fill="#0074d8" d="M310.6 27.5c-.4 0-.7-.2-1-.5-.2-.3-.4-.6-.4-1a1.4 1.4 0 0 1 1.4-1.4c.5 0 .8 0 1.1.3s.4.7.4 1c0 .5-.1.8-.4 1.1-.3.3-.6.5-1 .5ZM69.4 34.2l5.7 8.2c.8 1.2 1.8 2.3 1.6 3.8 0 1.1-1 2-1.8 2.7L69.2 54l-9.9 9.2c-1 1-2.2 1.9-3.1 3-1 1-2.3 1.9-3.3 3-2.1 2-6-.7-5.2-3.4l11.2-38.4c.4-1.7 2.6-2.4 4.1-1.7 1.1.5 1.7 1.6 2.3 2.5l4.1 6Z"/><path fill="#23c8fe" d="M73 28.3c.6-1 1.2-2 2.3-2.5 1.5-.7 3.7 0 4.1 1.7L90.6 66c.9 2.7-3 5.3-5.2 3.3-1-1-2.2-1.9-3.2-3-1-1-2.2-1.8-3.2-2.9l-9.9-9.2c-2-1.7-3.8-3.5-5.6-5.2-.8-.8-1.8-1.6-2-2.7-.1-1.5 1-2.6 1.7-3.7l5.7-8.3 4-5.9Z"/></svg>